<?xml version="1.0" encoding="utf-8"?>
<!-- Generator: Adobe Illustrator 16.0.0, SVG Export Plug-In . SVG Version: 6.00 Build 0)  -->
<!DOCTYPE svg PUBLIC "-//W3C//DTD SVG 1.1//EN" "http://www.w3.org/Graphics/SVG/1.1/DTD/svg11.dtd">
<svg version="1.1" xmlns="http://www.w3.org/2000/svg" xmlns:xlink="http://www.w3.org/1999/xlink" x="0px" y="0px"
	 width="58px" height="35px" viewBox="0 0 58 35" enable-background="new 0 0 58 35" xml:space="preserve" preserveAspectRatio="xMidYMid meet">
<path fill="#888888" d="M57.142,3.729c-0.793-1.021-1.934-1.606-3.129-1.606c-0.914,0-2.286,0.348-3.622,2.002
	c-1.634,2.023-2.767,3.261-3.677,4.256c-0.367,0.401-0.709,0.774-1.035,1.147c-0.007-1.71-0.445-3.255-3.047-4.283
	c-0.992-0.394-2.086-0.405-2.943-0.163c-0.377-1.082-1.18-2.108-2.712-2.593c-1.112-0.35-2.243-0.238-3.118,0.156
	c-0.396-0.767-1.07-1.469-2.157-1.922l-0.31-0.13C30.675,0.288,29.997,0,29.208,0c-1.828,0-3.146,1.327-6.178,5.317
	c-2.118,2.786-3.39,4.188-4.087,4.875l-2.165-1.899c-2.825-2.478-4.565-3.135-6.974-3.537C8.822,4.592,7.768,4.44,6.71,4.44
	c-1.179,0-2.254,0.195-3.285,0.597C1.831,5.657,0,6.687,0,9.15c0,2.293,1.231,3.456,4.881,4.611
	c2.977,0.942,3.888,1.896,5.732,6.001c2.084,4.637,3.103,6.354,6.299,9.6c3.07,3.116,5.768,5.322,12.569,5.322
	c6.647,0,7.986-0.213,11.728-3.129c3.545-2.763,4.266-3.594,7.473-10.196c2.584-5.321,3.357-6.332,5.426-9.034
	c0.375-0.488,0.788-1.029,1.259-1.655C56.937,8.58,58.892,5.979,57.142,3.729z M41.528,8.033c1.158,0.458,1.223,0.508,1.125,2.292
	c-0.629,1.193-3.061,5.797-4.229,7.826c-1.559,2.708-2.218,2.717-3.041,2.421c-0.385-0.138-0.531-0.265-0.543-0.229
	c-0.029-0.181,0.033-0.732,0.705-2.425l4.121-9.484c0.213-0.184,0.682-0.524,1.252-0.524C41.118,7.91,41.318,7.95,41.528,8.033z
	 M35.593,5.269c0.149,0,0.311,0.027,0.48,0.081c0.969,0.306,0.945,1.332,0.883,1.789c-0.488,1.088-3.053,6.8-4.18,9.628
	l-0.952,2.191c-0.548,1.262-1.365,1.756-2.308,1.382c-0.046-0.018-0.128-0.106-0.206-0.294c-0.256-0.623-0.243-1.868,0.278-3.04
	c0.167-0.377,0.353-0.802,0.55-1.257c0.251-0.478,0.493-1.002,0.729-1.575l3.229-7.856C34.215,6.121,34.776,5.269,35.593,5.269z
	 M30.22,3.354l0.327,0.139c0.935,0.39,0.856,1.298,0.765,1.712c-0.328,0.794-2.411,5.848-3.874,9.232
	c-0.825,1.537-1.472,1.902-1.683,1.984c-0.152,0.06-0.306,0.076-0.558-0.044c-0.745-0.352-0.449-1.904,0.269-4.296
	c0.63-2.099,2.666-7.412,3.184-8.757C28.885,3.123,29.08,3,29.208,3C29.386,3,29.81,3.18,30.22,3.354z M52.968,8.867
	c-0.465,0.618-0.873,1.152-1.242,1.635c-2.141,2.796-3.027,3.953-5.744,9.547c-3.113,6.41-3.58,6.773-6.617,9.142
	c-2.992,2.331-3.639,2.494-9.884,2.494c-6.07,0-7.995-1.954-10.431-4.428c-2.888-2.932-3.761-4.408-5.7-8.725
	c-2.024-4.505-3.471-6.335-7.563-7.63C3,10.02,3,9.617,3,9.15c0-0.342,0-0.729,1.514-1.318C5.201,7.564,5.899,7.44,6.71,7.44
	c0.839,0,1.746,0.132,2.6,0.274c1.736,0.29,2.971,0.625,5.49,2.834l3.11,2.729c0.395,0.347,0.94,0.463,1.44,0.306
	c0.696-0.219,1.888-1.331,3.534-3.275c-0.112,0.336-0.213,0.648-0.292,0.909c-0.713,2.374-1.906,6.348,1.324,7.872
	c0.732,0.346,1.495,0.452,2.237,0.321c0.036,0.638,0.162,1.241,0.381,1.773c0.386,0.941,1.038,1.615,1.884,1.948
	c1.373,0.539,3.03,0.452,4.392-0.602c0.495,0.441,1.088,0.696,1.56,0.865c0.585,0.21,1.127,0.302,1.629,0.302
	c2.693,0,4.224-2.659,5.024-4.051c0.78-1.355,2.068-3.751,3.057-5.609c0.18,0.058,0.367,0.097,0.561,0.097
	c1.066,0,1.877-0.863,2.529-1.708c0.518-0.669,1.064-1.266,1.756-2.021c0.938-1.025,2.105-2.301,3.798-4.396
	c0.462-0.571,0.919-0.887,1.288-0.887c0.383,0,0.68,0.343,0.762,0.448C55.116,6.01,53.499,8.16,52.968,8.867z"/>
</svg>
